<?xml version="1.0" encoding="UTF-8"?>
<svg width="249px" height="44.5px" viewBox="0 0 498 89" version="1.1" xmlns="http://www.w3.org/2000/svg" xmlns:xlink="http://www.w3.org/1999/xlink">
    <!-- Generator: Sketch 48.2 (47327) - http://www.bohemiancoding.com/sketch -->
    <desc>Created with Sketch.</desc>
    <defs></defs>
    <g id="Page-1" stroke="none" stroke-width="1" fill="none" fill-rule="evenodd">
        <g id="fhp" fill="#1A1918" fill-rule="nonzero">
            <path d="M148.27515,65.626752 C148.27515,74.9661559 146.140167,81.948374 137.694157,88.5640715 L128.533432,80.8098693 C133.341725,76.3016655 134.869658,72.8128472 134.991067,67.2921301 L127.660655,67.2967116 L127.660655,46.473758 L148.27515,46.473758 L148.27515,65.626752 Z" id="Fill-1"></path>
            <polygon id="Fill-3" points="127.79077 32.6156128 148.254075 32.6156128 148.254075 11.7926593 127.79077 11.7926593"></polygon>
            <polygon id="Fill-5" points="0.309624044 67.3003768 0.309624044 1.44578173 49.8403064 1.44578173 49.8403064 17.1145389 20.1773332 17.1145389 20.1773332 28.6759742 47.6022397 28.6759742 47.6022397 44.3493128 20.1773332 44.3493128 20.1773332 67.3003768"></polygon>
            <polygon id="Fill-6" points="96.0015186 67.2969407 96.0015186 41.5534476 76.7866744 41.5534476 76.7866744 67.2969407 56.4516514 67.2969407 56.4516514 1.44463636 76.7866744 1.44463636 76.7866744 24.5766699 96.0015186 24.5766699 96.0015186 1.44463636 116.428172 1.44463636 116.428172 67.2969407"></polygon>
            <path d="M187.77233,31.2931606 C191.689519,31.2931606 194.58045,30.7319258 196.165652,29.4284868 C197.656933,28.2143872 198.218168,26.3497135 198.218168,24.203277 C198.218168,22.1507615 197.656933,20.2860877 196.165652,18.980358 C194.674371,17.5807073 192.248463,17.1156843 188.049511,17.1156843 L179.93566,17.1156843 L179.93566,31.2931606 L187.77233,31.2931606 Z M159.8824,67.2969407 L159.8824,1.44463636 L188.049511,1.44463636 C201.017469,1.44463636 206.61149,2.84199628 210.52868,5.45574655 C216.312833,9.27901493 219.112135,15.5281918 219.112135,23.7359632 C219.112135,31.2931606 216.127282,37.9157303 210.810442,41.8329196 C206.240388,45.097244 200.270683,46.6847365 190.010396,46.6847365 L180.027291,46.6847365 L180.027291,67.2969407 L159.8824,67.2969407 Z" id="Fill-7"></path>
            <polygon id="Fill-8" points="254.422962 3.79357547 254.422962 8.0520871 258.750196 8.0520871 258.750196 10.3634579 254.422962 10.3634579 254.422962 16.8898159 251.330444 16.8898159 251.330444 1.43638964 259.231254 1.43638964 259.231254 3.79357547"></polygon>
            <path d="M267.160928,11.7150027 L266.290442,11.7150027 C264.06841,11.7150027 263.426999,12.448044 263.426999,13.5246983 C263.426999,14.4616167 263.956163,15.0343052 264.961804,15.0343052 C265.671938,15.0343052 266.448504,14.6700753 267.160928,14.0515717 L267.160928,11.7150027 Z M267.800049,16.8898159 L267.593881,15.7215314 C266.611147,16.5691104 265.557401,17.1417988 264.091318,17.1417988 C261.777656,17.1417988 260.54294,15.9964219 260.54294,13.8660207 C260.54294,11.4859273 262.441975,9.90759782 266.448504,9.90759782 L267.160928,9.90759782 L267.160928,9.03711131 C267.160928,7.86882678 266.49661,7.29613829 265.030527,7.29613829 C263.841626,7.29613829 262.581711,7.61684385 261.550872,7.98336448 L261.161444,6.19886714 C262.512988,5.60327111 264.047794,5.16802786 265.763568,5.16802786 C268.693443,5.16802786 270.065604,6.56538778 270.065604,8.73931329 L270.065604,16.8898159 L267.800049,16.8898159 Z" id="Fill-9"></path>
            <path d="M277.330501,17.1195785 C274.308997,17.1195785 272.751284,15.1953452 272.751284,11.3033542 C272.751284,7.68625369 274.606795,5.16642433 277.536669,5.16642433 C279.002752,5.16642433 280.168746,5.6955885 280.97051,6.60959933 L279.93967,8.11920619 C279.412797,7.64043861 278.771386,7.36554814 277.992529,7.36554814 C276.666183,7.36554814 275.818604,8.60026453 275.818604,11.0055562 C275.818604,13.800276 276.574553,14.8975472 277.900899,14.8975472 C278.817201,14.8975472 279.57544,14.5997492 280.329098,13.9354305 L281.220202,15.4473281 C280.329098,16.3636297 279.069184,17.1195785 277.330501,17.1195785" id="Fill-10"></path>
            <path d="M292.696879,16.8893578 L289.767005,16.8893578 C289.767005,14.5527887 289.833437,12.1726953 289.833437,10.8921639 C289.833437,8.14554986 289.285946,7.52475554 288.2322,7.52475554 C287.659511,7.52475554 286.903562,7.86836863 286.124706,8.46396467 L286.124706,16.8893578 L283.171924,16.8893578 L283.171924,0.657075141 L286.124706,0.657075141 L286.124706,6.40457685 C286.928761,5.71735066 288.003124,5.16756971 289.263039,5.16756971 C291.551502,5.16756971 292.788509,6.58783717 292.788509,10.3629997 C292.788509,11.7397428 292.696879,14.3489116 292.696879,16.8893578" id="Fill-11"></path>
            <path d="M305.546634,16.8893578 L302.61676,16.8893578 C302.61676,14.5527887 302.683192,12.1726953 302.683192,10.8921639 C302.683192,8.14554986 302.135702,7.52475554 301.081955,7.52475554 C300.509266,7.52475554 299.753318,7.86836863 298.974461,8.46396467 L298.974461,16.8893578 L296.021679,16.8893578 L296.021679,0.657075141 L298.974461,0.657075141 L298.974461,6.40457685 C299.776225,5.71735066 300.85288,5.16756971 302.112794,5.16756971 C304.401257,5.16756971 305.638265,6.58783717 305.638265,10.3629997 C305.638265,11.7397428 305.546634,14.3489116 305.546634,16.8893578" id="Fill-12"></path>
            <path d="M313.544115,7.34378598 C312.19257,7.34378598 311.255651,8.28070435 311.255651,10.8921639 C311.255651,14.1198362 312.10094,14.9674152 313.567022,14.9674152 C314.895659,14.9674152 315.832578,14.0282061 315.832578,11.4167465 C315.832578,8.18907419 314.98729,7.34378598 313.544115,7.34378598 M313.315039,17.1413407 C310.062169,17.1413407 308.234147,15.4942886 308.234147,11.3732222 C308.234147,7.13532736 310.359967,5.16756971 313.77319,5.16756971 C317.026061,5.16756971 318.854082,6.81691256 318.854082,10.9356882 C318.854082,15.1483847 316.728263,17.1413407 313.315039,17.1413407" id="Fill-13"></path>
            <path d="M325.481004,17.1195785 C322.4595,17.1195785 320.901787,15.1953452 320.901787,11.3033542 C320.901787,7.68625369 322.757298,5.16642433 325.687172,5.16642433 C327.153255,5.16642433 328.319249,5.6955885 329.121013,6.60959933 L328.090173,8.11920619 C327.5633,7.64043861 326.921889,7.36554814 326.143032,7.36554814 C324.816686,7.36554814 323.969107,8.60026453 323.969107,11.0055562 C323.969107,13.800276 324.725056,14.8975472 326.051402,14.8975472 C326.969995,14.8975472 327.725943,14.5997492 328.479601,13.9354305 L329.370705,15.4473281 C328.479601,16.3636297 327.219687,17.1195785 325.481004,17.1195785" id="Fill-14"></path>
            <path d="M340.847611,16.8893578 L337.917737,16.8893578 C337.917737,14.5527887 337.984169,12.1726953 337.984169,10.8921639 C337.984169,8.14554986 337.436679,7.52475554 336.382932,7.52475554 C335.810243,7.52475554 335.054294,7.86836863 334.275438,8.46396467 L334.275438,16.8893578 L331.322656,16.8893578 L331.322656,0.657075141 L334.275438,0.657075141 L334.275438,6.40457685 C335.077202,5.71735066 336.153856,5.16756971 337.413771,5.16756971 C339.702234,5.16756971 340.939241,6.58783717 340.939241,10.3629997 C340.939241,11.7397428 340.847611,14.3489116 340.847611,16.8893578" id="Fill-15"></path>
            <path d="M346.898867,17.1195785 C345.616045,17.1195785 344.450051,16.7965822 343.327581,16.1803694 L343.579564,14.6455642 C344.885294,14.9433623 345.66186,15.0349924 346.371993,15.0349924 C347.883891,15.0349924 348.45658,14.4623039 348.45658,13.7750777 C348.45658,13.0214197 348.087768,12.6319915 346.417809,12.0363955 C344.220975,11.2575391 343.373397,10.31833 343.373397,8.64837036 C343.373397,6.566075 345.043356,5.16642433 347.563186,5.16642433 C348.591734,5.16642433 349.579049,5.39779048 350.76795,6.0140033 L350.447245,7.52590092 C349.487419,7.29682552 348.8231,7.18228782 348.179398,7.18228782 C346.990497,7.18228782 346.463624,7.72977802 346.463624,8.37347988 C346.463624,9.05841532 346.853052,9.40431917 348.477196,9.9999152 C350.722135,10.7535733 351.569714,11.8302276 351.569714,13.4772797 C351.569714,15.5618658 349.851649,17.1195785 346.898867,17.1195785" id="Fill-16"></path>
            <path d="M357.985658,17.1195785 C354.964153,17.1195785 353.406441,15.1953452 353.406441,11.3033542 C353.406441,7.68625369 355.261951,5.16642433 358.191826,5.16642433 C359.657908,5.16642433 360.823902,5.6955885 361.625666,6.60959933 L360.594827,8.11920619 C360.067953,7.64043861 359.426542,7.36554814 358.647686,7.36554814 C357.321339,7.36554814 356.47376,8.60026453 356.47376,11.0055562 C356.47376,13.800276 357.229709,14.8975472 358.556056,14.8975472 C359.472357,14.8975472 360.230597,14.5997492 360.984255,13.9354305 L361.875358,15.4473281 C360.984255,16.3636297 359.72434,17.1195785 357.985658,17.1195785" id="Fill-17"></path>
            <path d="M373.352036,16.8893578 L370.422161,16.8893578 C370.422161,14.5527887 370.488593,12.1726953 370.488593,10.8921639 C370.488593,8.14554986 369.941103,7.52475554 368.887356,7.52475554 C368.314668,7.52475554 367.558719,7.86836863 366.779862,8.46396467 L366.779862,16.8893578 L363.827081,16.8893578 L363.827081,0.657075141 L366.779862,0.657075141 L366.779862,6.40457685 C367.581626,5.71735066 368.658281,5.16756971 369.918195,5.16756971 C372.206659,5.16756971 373.443666,6.58783717 373.443666,10.3629997 C373.443666,11.7397428 373.352036,14.3489116 373.352036,16.8893578" id="Fill-18"></path>
            <path d="M383.799248,16.8893578 L383.570173,15.6775489 C382.587439,16.5686522 381.419155,17.1413407 380.113425,17.1413407 C377.776856,17.1413407 376.587955,15.6775489 376.587955,11.9459107 C376.587955,10.5256432 376.679585,7.93938201 376.679585,5.41955264 L379.632367,5.41955264 C379.632367,7.7309234 379.543027,10.0652017 379.543027,11.4396541 C379.543027,14.1427438 380.090517,14.7841549 381.121357,14.7841549 C381.760477,14.7841549 382.516426,14.3947267 383.251758,13.8449457 L383.251758,5.41955264 L386.20454,5.41955264 L386.20454,16.8893578 L383.799248,16.8893578 Z" id="Fill-19"></path>
            <path d="M391.794438,17.0726181 C390.307738,17.0726181 389.528882,16.6144673 389.528882,14.7589566 L389.528882,0.657075141 L392.481664,0.657075141 L392.481664,13.590672 C392.481664,14.875785 392.642017,15.0567546 393.237613,15.0567546 C393.420873,15.0567546 393.649948,15.033847 393.810301,15.033847 L393.924839,16.7748201 C393.375058,16.9580804 392.690122,17.0726181 391.794438,17.0726181" id="Fill-20"></path>
            <path d="M402.241421,9.86040829 C402.241421,8.03009586 401.620627,7.13670182 400.38591,7.13670182 C399.105379,7.13670182 398.418153,8.25917126 398.326523,9.90622336 L402.241421,9.90622336 L402.241421,9.86040829 Z M398.326523,11.7388265 L398.326523,11.8991793 C398.326523,14.006673 399.240533,14.8977763 400.889876,14.8977763 C401.918425,14.8977763 403.26997,14.6709916 404.598607,14.2334576 L405.03385,15.9263248 C403.63649,16.6616568 401.989438,17.1427152 400.29428,17.1427152 C397.295683,17.1427152 395.305018,15.6537251 395.305018,11.4639361 C395.305018,7.36577721 397.295683,5.1666534 400.500448,5.1666534 C403.45323,5.1666534 405.400371,6.81599626 405.079665,11.7388265 L398.326523,11.7388265 Z" id="Fill-21"></path>
            <path d="M418.024029,3.65704654 L417.08482,3.65704654 L417.08482,9.40454825 L418.024029,9.40454825 C420.060509,9.40454825 420.976811,8.35080142 420.976811,6.51819825 C420.976811,4.66268753 420.175047,3.65704654 418.024029,3.65704654 M417.726231,11.6930115 L417.08482,11.6930115 L417.08482,16.8884415 L413.992302,16.8884415 L413.992302,1.43501519 C415.435477,1.43501519 416.901559,1.39149086 418.479889,1.39149086 C422.669678,1.39149086 424.204483,3.2905259 424.204483,6.24330777 C424.204483,9.40454825 422.511616,11.6930115 417.726231,11.6930115" id="Fill-22"></path>
            <path d="M431.034824,7.34378598 C429.683279,7.34378598 428.746361,8.28070435 428.746361,10.8921639 C428.746361,14.1198362 429.591649,14.9674152 431.057732,14.9674152 C432.386369,14.9674152 433.323287,14.0282061 433.323287,11.4167465 C433.323287,8.18907419 432.477999,7.34378598 431.034824,7.34378598 M430.805749,17.1413407 C427.552878,17.1413407 425.724856,15.4942886 425.724856,11.3732222 C425.724856,7.13532736 427.850676,5.16756971 431.263899,5.16756971 C434.51677,5.16756971 436.344792,6.81691256 436.344792,10.9356882 C436.344792,15.1483847 434.218972,17.1413407 430.805749,17.1413407" id="Fill-23"></path>
            <path d="M442.029985,17.1195785 C439.924782,17.1195785 439.123018,16.3178146 439.123018,14.1209816 L439.123018,7.48008584 L437.682134,7.48008584 L437.682134,5.42069802 L439.237556,5.42069802 C439.512446,4.38756798 439.718614,3.35901945 439.924782,2.07848798 L442.0758,2.07848798 L442.0758,5.42069802 L444.618537,5.42069802 L444.618537,7.48008584 L442.0758,7.48008584 L442.0758,13.3856496 C442.0758,14.5539341 442.352981,14.9204547 443.106639,14.9204547 C443.47316,14.9204547 443.954218,14.8769304 444.68726,14.6707625 L444.916335,16.3636297 C443.839681,16.9111199 442.900471,17.1195785 442.029985,17.1195785" id="Fill-24"></path>
            <path d="M449.933544,17.1195785 C448.650722,17.1195785 447.484728,16.7965822 446.362259,16.1803694 L446.614242,14.6455642 C447.919972,14.9433623 448.696537,15.0349924 449.408962,15.0349924 C450.918568,15.0349924 451.491257,14.4623039 451.491257,13.7750777 C451.491257,13.0214197 451.124736,12.6319915 449.452486,12.0363955 C447.255653,11.2575391 446.408074,10.31833 446.408074,8.64837036 C446.408074,6.566075 448.078034,5.16642433 450.597863,5.16642433 C451.626411,5.16642433 452.613726,5.39779048 453.802628,6.0140033 L453.481922,7.52590092 C452.522096,7.29682552 451.857778,7.18228782 451.216366,7.18228782 C450.025174,7.18228782 449.500592,7.72977802 449.500592,8.37347988 C449.500592,9.05841532 449.887729,9.40431917 451.511874,9.9999152 C453.756813,10.7535733 454.604392,11.8302276 454.604392,13.4772797 C454.604392,15.5618658 452.886326,17.1195785 449.933544,17.1195785" id="Fill-25"></path>
            <path d="M463.378208,7.50253523 C462.963582,7.36508999 462.484814,7.27345983 461.980848,7.27345983 C460.491858,7.27345983 459.46331,8.48755943 459.46331,11.2112659 C459.46331,13.6394651 460.173444,14.8764722 461.339437,14.8764722 C461.889218,14.8764722 462.62226,14.5534759 463.378208,13.9143556 L463.378208,7.50253523 Z M463.925699,16.890045 L463.698914,15.7217605 C462.736797,16.5464319 461.68305,17.1420279 460.468951,17.1420279 C457.791059,17.1420279 456.441805,14.6932119 456.441805,11.6236016 C456.441805,6.99856935 458.936436,5.16596618 462.095386,5.16596618 C462.553537,5.16596618 463.08041,5.21407201 463.378208,5.23697955 L463.378208,0.657762367 L466.33099,0.657762367 L466.33099,16.890045 L463.925699,16.890045 Z" id="Fill-26"></path>
            <path d="M475.543486,11.7150027 L474.673,11.7150027 C472.450969,11.7150027 471.809557,12.448044 471.809557,13.5246983 C471.809557,14.4616167 472.336431,15.0343052 473.344363,15.0343052 C474.054496,15.0343052 474.831062,14.6700753 475.543486,14.0515717 L475.543486,11.7150027 Z M476.182607,16.8898159 L475.976439,15.7215314 C474.993705,16.5691104 473.939959,17.1417988 472.473876,17.1417988 C470.160215,17.1417988 468.925498,15.9964219 468.925498,13.8660207 C468.925498,11.4859273 470.824533,9.90759782 474.831062,9.90759782 L475.543486,9.90759782 L475.543486,9.03711131 C475.543486,7.86882678 474.879168,7.29613829 473.413085,7.29613829 C472.224184,7.29613829 470.964269,7.61684385 469.93343,7.98336448 L469.544002,6.19886714 C470.895547,5.60327111 472.430352,5.16802786 474.146126,5.16802786 C477.076001,5.16802786 478.448162,6.56538778 478.448162,8.73931329 L478.448162,16.8898159 L476.182607,16.8898159 Z" id="Fill-27"></path>
            <path d="M497.596346,16.8893578 L494.666471,16.8893578 C494.666471,14.577987 494.735194,12.2185104 494.735194,10.8921639 C494.735194,8.14554986 494.231228,7.52475554 493.248495,7.52475554 C492.652899,7.52475554 491.828227,7.95999879 491.069988,8.55559482 C491.141001,8.92211546 491.186816,9.44898887 491.186816,10.2736603 L491.186816,16.8893578 L488.256942,16.8893578 L488.256942,10.8921639 C488.256942,8.18907419 487.750685,7.52475554 486.790859,7.52475554 C486.241078,7.52475554 485.48513,7.89127617 484.729181,8.46396467 L484.729181,16.8893578 L481.776399,16.8893578 L481.776399,5.41955264 L484.202307,5.41955264 L484.408475,6.63136149 C485.327068,5.78607328 486.493061,5.16756971 487.798791,5.16756971 C489.216768,5.16756971 490.155977,5.87770344 490.588929,6.81462181 C491.690782,5.83188836 492.879683,5.16756971 494.254136,5.16756971 C496.499075,5.16756971 497.687976,6.63136149 497.687976,10.3423829 C497.687976,11.7626504 497.596346,14.3695284 497.596346,16.8893578" id="Fill-28"></path>
            <path d="M256.850245,42.3403216 C253.185038,42.3403216 251.308911,40.8055164 251.308911,36.8470936 L251.308911,26.6349124 L254.401429,26.6349124 L254.401429,36.5240973 C254.401429,39.1561736 255.223809,40.0747659 257.125135,40.0747659 C258.84091,40.0747659 259.871749,39.2707113 259.871749,36.7073576 L259.871749,26.6349124 L262.895544,26.6349124 L262.895544,36.5011897 C262.895544,40.7367938 260.398623,42.3403216 256.850245,42.3403216" id="Fill-29"></path>
            <path d="M275.930164,42.0876514 L273.000289,42.0876514 C273.000289,39.7762807 273.066721,37.4168041 273.066721,36.06755 C273.066721,33.3438435 272.542138,32.7230492 271.488392,32.7230492 C270.869888,32.7230492 270.113939,33.0895698 269.35799,33.6622583 L269.35799,42.0876514 L266.405209,42.0876514 L266.405209,30.6178463 L268.831117,30.6178463 L269.037285,31.8296551 C270.022309,30.9385519 271.190594,30.3658634 272.519231,30.3658634 C274.830602,30.3658634 276.021794,31.8296551 276.021794,35.5612934 C276.021794,36.9815608 275.930164,39.5678221 275.930164,42.0876514" id="Fill-30"></path>
            <path d="M279.255422,42.0878805 L282.208204,42.0878805 L282.208204,30.6180754 L279.255422,30.6180754 L279.255422,42.0878805 Z M280.742121,29.131376 C279.324145,29.131376 278.978241,28.7625647 278.978241,27.5965709 C278.978241,26.4511939 279.347052,26.0617657 280.742121,26.0617657 C282.162389,26.0617657 282.483094,26.4053788 282.483094,27.5965709 C282.483094,28.7419479 282.139481,29.131376 280.742121,29.131376 Z" id="Fill-31"></path>
            <path d="M291.415202,42.0876514 L287.569026,42.0876514 L284.295539,30.6178463 L287.477396,30.6178463 L289.332907,37.0960985 L289.791058,39.3868525 C290.753174,36.2737178 291.415202,33.4354737 291.690093,30.6178463 L294.734505,30.6178463 C294.138909,34.5556524 293.01873,38.4934584 291.415202,42.0876514" id="Fill-32"></path>
            <path d="M303.144092,35.0587019 C303.144092,33.2283895 302.525588,32.3349955 301.288581,32.3349955 C300.008049,32.3349955 299.320823,33.4574649 299.229193,35.104517 L303.144092,35.104517 L303.144092,35.0587019 Z M299.229193,36.9371202 L299.229193,37.097473 C299.229193,39.2049666 300.143204,40.0960699 301.792547,40.0960699 C302.821095,40.0960699 304.17264,39.8692853 305.501277,39.4317513 L305.936521,41.1246184 C304.539161,41.8599505 302.892109,42.3410088 301.196951,42.3410088 C298.198354,42.3410088 296.207689,40.8520187 296.207689,36.6622297 C296.207689,32.5640709 298.198354,30.3649471 301.403119,30.3649471 C304.3559,30.3649471 306.303041,32.0142899 305.982336,36.9371202 L299.229193,36.9371202 Z" id="Fill-33"></path>
            <path d="M315.034021,33.2288477 C314.552963,33.0891117 314.255165,33.0684949 314.026089,33.0684949 C313.384678,33.0684949 312.834897,33.5014474 311.804058,34.8071772 L311.804058,42.0871933 L308.851276,42.0871933 L308.851276,30.6173881 L311.277185,30.6173881 L311.50626,32.4041762 C312.674544,30.8693711 313.453401,30.3883127 314.278072,30.3883127 C314.619395,30.3883127 315.008823,30.4570354 315.375343,30.6402957 L315.034021,33.2288477 Z" id="Fill-34"></path>
            <path d="M320.145609,42.3178722 C318.865078,42.3178722 317.696793,41.9948759 316.574324,41.3786631 L316.826307,39.8438579 C318.129746,40.1416559 318.908602,40.2332861 319.621027,40.2332861 C321.130634,40.2332861 321.703322,39.6605976 321.703322,38.9733714 C321.703322,38.2197133 321.336801,37.8302852 319.664551,37.2346891 C317.467718,36.4558328 316.620139,35.5166237 316.620139,33.846664 C316.620139,31.7643687 318.292389,30.364718 320.809928,30.364718 C321.838477,30.364718 322.825792,30.5960841 324.014693,31.212297 L323.693987,32.7241946 C322.734161,32.4951192 322.069843,32.3805815 321.428432,32.3805815 C320.23724,32.3805815 319.712657,32.9280717 319.712657,33.5717735 C319.712657,34.256709 320.099794,34.6026128 321.723939,35.1982089 C323.968878,35.9518669 324.816457,37.0285213 324.816457,38.6755734 C324.816457,40.7601595 323.098391,42.3178722 320.145609,42.3178722" id="Fill-35"></path>
            <path d="M327.292533,42.0878805 L330.245315,42.0878805 L330.245315,30.6180754 L327.292533,30.6180754 L327.292533,42.0878805 Z M328.781523,29.131376 C327.361255,29.131376 327.017642,28.7625647 327.017642,27.5965709 C327.017642,26.4511939 327.384163,26.0617657 328.781523,26.0617657 C330.20179,26.0617657 330.520205,26.4053788 330.520205,27.5965709 C330.520205,28.7419479 330.178883,29.131376 328.781523,29.131376 Z" id="Fill-36"></path>
            <path d="M336.706615,42.3178722 C334.601412,42.3178722 333.799648,41.5161083 333.799648,39.3192752 L333.799648,32.6783795 L332.358764,32.6783795 L332.358764,30.6189917 L333.914186,30.6189917 C334.189077,29.5858616 334.395244,28.5573131 334.601412,27.2767816 L336.75243,27.2767816 L336.75243,30.6189917 L339.295167,30.6189917 L339.295167,32.6783795 L336.75243,32.6783795 L336.75243,38.5839432 C336.75243,39.7522277 337.029612,40.1187484 337.78327,40.1187484 C338.14979,40.1187484 338.630849,40.0752241 339.36389,39.8690562 L339.592965,41.5619234 C338.516311,42.1094136 337.577102,42.3178722 336.706615,42.3178722" id="Fill-37"></path>
            <path d="M342.247949,46.1858103 C341.743983,46.1858103 341.104863,46.0277482 340.509267,45.7047519 L340.509267,44.0118847 C340.85288,44.0554091 341.379753,44.0806074 341.652353,44.0806074 C342.387685,44.0806074 342.88936,43.9202546 343.301696,43.5743507 C343.782754,43.1643058 343.966015,42.7748776 343.966015,42.2250967 C343.966015,41.7669459 343.828569,41.0797197 343.441432,39.9572502 L340.600897,30.6178463 L343.759847,30.6178463 L345.544344,37.0525742 C345.890248,38.1498453 346.096416,39.2035922 346.04831,39.8908184 C346.918796,37.2106362 347.72056,33.6851659 347.949636,30.6178463 L350.994048,30.6178463 C349.163735,42.5916173 345.40919,46.1858103 342.247949,46.1858103" id="Fill-38"></path>
            <path d="M362.795325,32.5420796 C361.44378,32.5420796 360.506862,33.478998 360.506862,36.0904575 C360.506862,39.3181299 361.35215,40.1657088 362.818233,40.1657088 C364.14687,40.1657088 365.083788,39.2264997 365.083788,36.6150402 C365.083788,33.3873678 364.2385,32.5420796 362.795325,32.5420796 M362.56625,42.3396344 C359.313379,42.3396344 357.485357,40.6925822 357.485357,36.5715159 C357.485357,32.333621 359.611177,30.3658634 363.0244,30.3658634 C366.277271,30.3658634 368.105293,32.0152062 368.105293,36.1339819 C368.105293,40.3466784 365.979473,42.3396344 362.56625,42.3396344" id="Fill-39"></path>
            <path d="M376.562298,28.0075321 C376.08124,27.8242718 375.62538,27.7326417 375.210753,27.7326417 C374.317359,27.7326417 373.976037,28.1907925 373.976037,29.1529091 L373.976037,30.6189917 L376.035425,30.6189917 L376.035425,32.6783795 L373.976037,32.6783795 L373.976037,42.086506 L371.046163,42.086506 L371.046163,32.6783795 L369.58008,32.6783795 L369.58008,30.6189917 L371.046163,30.6189917 L371.046163,29.2445393 C371.046163,26.9789836 371.937266,25.6022405 374.250927,25.6022405 C375.394014,25.6022405 376.312606,25.9481443 376.997541,26.314665 L376.562298,28.0075321 Z" id="Fill-40"></path>
            <path d="M255.933027,54.5569125 C255.293906,56.7537455 254.51505,59.5919897 253.942362,61.9285588 L258.063428,61.9285588 C257.422017,59.5484654 256.688976,56.9370059 255.933027,54.5569125 Z M259.229422,67.2866323 C259.046161,66.4161458 258.796469,65.1333236 258.565103,64.2422203 L253.461303,64.2422203 C253.255135,65.110416 253.003152,66.2328855 252.822183,67.2866323 L249.86711,67.2866323 C251.012487,62.1370174 252.524385,56.7995606 254.148529,51.833206 L258.200873,51.833206 C259.985371,57.1202662 261.336915,62.0889115 262.571632,67.2866323 L259.229422,67.2866323 Z" id="Fill-41"></path>
            <path d="M269.610432,57.8297127 C269.062941,57.8297127 268.306992,58.152709 267.57166,58.7918294 L267.57166,65.2036497 C267.961089,65.3640025 268.442147,65.4304344 268.948404,65.4304344 C270.435103,65.4304344 271.48885,64.2186255 271.48885,61.494919 C271.48885,59.1354424 270.778716,57.8297127 269.610432,57.8297127 M268.788051,67.537928 C268.442147,67.537928 267.938181,67.5173112 267.57166,67.4692054 L267.57166,71.2466587 L264.618879,71.2466587 L264.618879,55.8161399 L267.02417,55.8161399 L267.253246,56.9844245 C268.192455,56.1368455 269.289726,55.564157 270.435103,55.564157 C273.184008,55.564157 274.510354,58.0381713 274.510354,61.0825833 C274.510354,65.6136947 272.084446,67.537928 268.788051,67.537928" id="Fill-42"></path>
            <path d="M282.185067,57.8297127 C281.637577,57.8297127 280.881628,58.152709 280.146296,58.7918294 L280.146296,65.2036497 C280.535724,65.3640025 281.016783,65.4304344 281.523039,65.4304344 C283.009739,65.4304344 284.063486,64.2186255 284.063486,61.494919 C284.063486,59.1354424 283.353352,57.8297127 282.185067,57.8297127 M281.362687,67.537928 C281.016783,67.537928 280.512817,67.5173112 280.146296,67.4692054 L280.146296,71.2466587 L277.193514,71.2466587 L277.193514,55.8161399 L279.598806,55.8161399 L279.827881,56.9844245 C280.767091,56.1368455 281.864362,55.564157 283.009739,55.564157 C285.756353,55.564157 287.08499,58.0381713 287.08499,61.0825833 C287.08499,65.6136947 284.659082,67.537928 281.362687,67.537928" id="Fill-43"></path>
            <path d="M292.036913,67.4692054 C290.550214,67.4692054 289.771357,67.0110546 289.771357,65.1555439 L289.771357,51.0536624 L292.724139,51.0536624 L292.724139,63.9872594 C292.724139,65.2723723 292.884492,65.4533419 293.480088,65.4533419 C293.663348,65.4533419 293.892424,65.4304344 294.052776,65.4304344 L294.167314,67.1714074 C293.617533,67.3546677 292.932598,67.4692054 292.036913,67.4692054" id="Fill-44"></path>
            <path d="M296.413169,67.2861741 L299.365951,67.2861741 L299.365951,55.816369 L296.413169,55.816369 L296.413169,67.2861741 Z M297.899869,54.3296697 C296.481892,54.3296697 296.138279,53.9608583 296.138279,52.7948645 C296.138279,51.6494876 296.504799,51.2600594 297.899869,51.2600594 C299.320136,51.2600594 299.640842,51.6036725 299.640842,52.7948645 C299.640842,53.9402415 299.299519,54.3296697 297.899869,54.3296697 Z" id="Fill-45"></path>
            <path d="M308.987347,60.2569956 C308.987347,58.4266832 308.366553,57.5332891 307.131836,57.5332891 C305.851305,57.5332891 305.164078,58.6557586 305.072448,60.3028107 L308.987347,60.3028107 L308.987347,60.2569956 Z M305.072448,62.1354138 L305.072448,62.2957666 C305.072448,64.4032603 305.986459,65.2943636 307.635802,65.2943636 C308.664351,65.2943636 310.015895,65.0675789 311.344533,64.6300449 L311.779776,66.3229121 C310.382416,67.0582441 308.735364,67.5393025 307.040206,67.5393025 C304.041609,67.5393025 302.050944,66.0503124 302.050944,61.8605234 C302.050944,57.7623645 304.041609,55.5632407 307.246374,55.5632407 C310.199156,55.5632407 312.146297,57.2125836 311.825591,62.1354138 L305.072448,62.1354138 Z" id="Fill-46"></path>
            <path d="M320.991356,57.8991225 C320.576729,57.7616773 320.097962,57.6700471 319.593996,57.6700471 C318.105006,57.6700471 317.076457,58.8841467 317.076457,61.6078532 C317.076457,64.0360524 317.786591,65.2730596 318.952585,65.2730596 C319.502366,65.2730596 320.235407,64.9500632 320.991356,64.3109429 L320.991356,57.8991225 Z M321.538846,67.2866323 L321.312061,66.1183478 C320.349945,66.9430192 319.296198,67.5386152 318.082098,67.5386152 C315.406498,67.5386152 314.054953,65.0897992 314.054953,62.0201889 C314.054953,57.3951567 316.549584,55.5625535 319.708534,55.5625535 C320.166684,55.5625535 320.693558,55.6106593 320.991356,55.6335669 L320.991356,51.0543497 L323.944138,51.0543497 L323.944138,67.2866323 L321.538846,67.2866323 Z" id="Fill-47"></path>
            <path d="M337.073594,67.5161658 C335.263898,67.5161658 333.731384,66.9182791 332.425654,66.0500833 L333.158695,64.423648 C334.393412,64.9276139 335.630419,65.2483194 336.500906,65.2483194 C338.079235,65.2483194 339.064259,64.5610932 339.064259,63.2576542 C339.064259,60.233859 332.608915,60.829455 332.608915,55.9753473 C332.608915,53.3203635 334.668302,51.6045888 337.554652,51.6045888 C338.997827,51.6045888 340.392897,51.994017 341.698626,52.8645035 L340.965585,54.4657405 C339.982852,54.0763123 338.972629,53.8472369 338.127341,53.8472369 C336.592536,53.8472369 335.882402,54.5802782 335.882402,55.6111175 C335.882402,58.632622 342.498099,58.1263653 342.498099,62.8888428 C342.498099,65.5003024 340.576157,67.5161658 337.073594,67.5161658" id="Fill-48"></path>
            <path d="M348.983682,67.5161658 C345.962178,67.5161658 344.404465,65.5919325 344.404465,61.6999415 C344.404465,58.082841 346.259976,55.5630116 349.18985,55.5630116 C350.655932,55.5630116 351.821926,56.0921758 352.62369,57.0061866 L351.592851,58.5157935 C351.065977,58.0370259 350.424566,57.7621354 349.64571,57.7621354 C348.319363,57.7621354 347.471784,58.9968518 347.471784,61.4021435 C347.471784,64.1968633 348.227733,65.2941345 349.55408,65.2941345 C350.470381,65.2941345 351.228621,64.9963365 351.982279,64.3320178 L352.873382,65.8439154 C351.982279,66.760217 350.722364,67.5161658 348.983682,67.5161658" id="Fill-49"></path>
            <path d="M355.077088,67.2861741 L358.029869,67.2861741 L358.029869,55.816369 L355.077088,55.816369 L355.077088,67.2861741 Z M356.566078,54.3296697 C355.14581,54.3296697 354.802197,53.9608583 354.802197,52.7948645 C354.802197,51.6494876 355.168718,51.2600594 356.566078,51.2600594 C357.986345,51.2600594 358.30476,51.6036725 358.30476,52.7948645 C358.30476,53.9402415 357.963438,54.3296697 356.566078,54.3296697 Z" id="Fill-50"></path>
            <path d="M367.651952,60.2569956 C367.651952,58.4266832 367.033449,57.5332891 365.798732,57.5332891 C364.51591,57.5332891 363.828684,58.6557586 363.737054,60.3028107 L367.651952,60.3028107 L367.651952,60.2569956 Z M363.737054,62.1354138 L363.737054,62.2957666 C363.737054,64.4032603 364.653356,65.2943636 366.300408,65.2943636 C367.328956,65.2943636 368.680501,65.0675789 370.009138,64.6300449 L370.444382,66.3229121 C369.047022,67.0582441 367.39997,67.5393025 365.704812,67.5393025 C362.706215,67.5393025 360.715549,66.0503124 360.715549,61.8605234 C360.715549,57.7623645 362.706215,55.5632407 365.910979,55.5632407 C368.863761,55.5632407 370.810902,57.2125836 370.490197,62.1354138 L363.737054,62.1354138 Z" id="Fill-51"></path>
            <path d="M382.88203,67.2859451 L379.952156,67.2859451 C379.952156,64.9745743 380.018588,62.6150977 380.018588,61.2658436 C380.018588,58.5421372 379.491714,57.9213428 378.437968,57.9213428 C377.821755,57.9213428 377.065806,58.2878635 376.309857,58.860552 L376.309857,67.2859451 L373.357075,67.2859451 L373.357075,55.8161399 L375.782984,55.8161399 L375.989152,57.0279488 C376.974176,56.1368455 378.14246,55.564157 379.471098,55.564157 C381.780178,55.564157 382.97366,57.0279488 382.97366,60.759587 C382.97366,62.1798545 382.88203,64.7661157 382.88203,67.2859451" id="Fill-52"></path>
            <path d="M390.147844,67.5161658 C387.126339,67.5161658 385.568626,65.5919325 385.568626,61.6999415 C385.568626,58.082841 387.424137,55.5630116 390.354012,55.5630116 C391.817803,55.5630116 392.986088,56.0921758 393.787852,57.0061866 L392.757012,58.5157935 C392.230139,58.0370259 391.588728,57.7621354 390.809872,57.7621354 C389.483525,57.7621354 388.635946,58.9968518 388.635946,61.4021435 C388.635946,64.1968633 389.391895,65.2941345 390.718241,65.2941345 C391.634543,65.2941345 392.390492,64.9963365 393.146441,64.3320178 L394.037544,65.8439154 C393.146441,66.760217 391.886526,67.5161658 390.147844,67.5161658" id="Fill-53"></path>
            <path d="M402.17224,60.2569956 C402.17224,58.4266832 401.551446,57.5332891 400.31673,57.5332891 C399.036198,57.5332891 398.348972,58.6557586 398.257342,60.3028107 L402.17224,60.3028107 L402.17224,60.2569956 Z M398.257342,62.1354138 L398.257342,62.2957666 C398.257342,64.4032603 399.171353,65.2943636 400.820695,65.2943636 C401.849244,65.2943636 403.200789,65.0675789 404.529426,64.6300449 L404.964669,66.3229121 C403.567309,67.0582441 401.920257,67.5393025 400.225099,67.5393025 C397.226502,67.5393025 395.235837,66.0503124 395.235837,61.8605234 C395.235837,57.7623645 397.226502,55.5632407 400.431267,55.5632407 C403.384049,55.5632407 405.33119,57.2125836 405.010484,62.1354138 L398.257342,62.1354138 Z" id="Fill-54"></path>
            <path d="M410.603589,67.5161658 C409.323058,67.5161658 408.154773,67.1931695 407.032304,66.5769567 L407.284287,65.0421516 C408.587726,65.3399496 409.366582,65.4315797 410.079007,65.4315797 C411.588614,65.4315797 412.161302,64.8588912 412.161302,64.171665 C412.161302,63.418007 411.794781,63.0285788 410.122531,62.4329828 C407.925698,61.6541264 407.078119,60.7149173 407.078119,59.0449577 C407.078119,56.9626623 408.750369,55.5630116 411.267908,55.5630116 C412.296457,55.5630116 413.283772,55.7943778 414.474964,56.4105906 L414.151967,57.9224882 C413.192141,57.6934128 412.527823,57.5788751 411.886412,57.5788751 C410.69522,57.5788751 410.170637,58.1263653 410.170637,58.7700672 C410.170637,59.4572934 410.560065,59.8009065 412.18421,60.3965025 C414.426858,61.1501606 415.274437,62.2268149 415.274437,63.873867 C415.274437,65.9584531 413.556371,67.5161658 410.603589,67.5161658" id="Fill-55"></path>
        </g>
    </g>
</svg>