<?xml version="1.0" encoding="UTF-8"?>
<svg width="148px" height="42px" id="Layer_2" data-name="Layer 2" xmlns="http://www.w3.org/2000/svg" viewBox="0 0 445.15 127">
  <g id="Layer_1-2" data-name="Layer 1">
    <g fill="#222">
      <path d="m192.16,33.28c-.25,1.56-.48,2.96-.71,4.36-.28,1.7-.61,3.4-.85,5.11-.1.71-.39.92-1.1.92-6.61-.02-13.23,0-19.84-.04-.96,0-1.26.29-1.39,1.21-.39,2.8-.88,5.59-1.33,8.38-.05.29-.08.58-.14,1.03.43,0,.78,0,1.12,0,7.15,0,14.3,0,21.45,0,1.2,0,1.2,0,1,1.21-.46,2.7-.94,5.4-1.35,8.11-.12.79-.37,1.09-1.23,1.08-8.97-.04-17.93-.02-26.9-.02-5.1,0-8.08-3.61-7.22-8.62,1.12-6.54,2.14-13.09,3.22-19.64.71-4.28,1.43-8.56,2.15-12.85.04-.23.05-.45.08-.77-.38-.03-.7-.06-1.02-.06-4.86,0-9.71.01-14.57-.02-.75,0-1.08.17-1.21.99-2.06,12.67-4.16,25.33-6.24,37.99-.13.79-.23,1.59-.42,2.37-.06.24-.38.58-.59.59-3.9.03-7.8.01-11.7,0-.08,0-.16-.07-.34-.16,2.29-13.86,4.58-27.73,6.89-41.7-.38-.03-.64-.06-.9-.06-4.97,0-9.95.01-14.92-.02-.72,0-1.01.17-1.14.94-2.15,13.11-4.34,26.21-6.52,39.31-.29,1.72-.28,1.72-1.99,1.71-2.74,0-5.48-.02-8.22.01-.65,0-1.02-.19-1.33-.77-4.86-9.35-9.73-18.7-14.61-28.04-.21-.41-.46-.81-.91-1.19-.1.47-.22.94-.29,1.41-1.53,9.16-3.06,18.33-4.56,27.5-.14.85-.43,1.12-1.3,1.1-3.51-.05-7.03-.02-10.54-.02-.32,0-.64,0-1.09,0,.27-1.71.5-3.29.76-4.86,2.57-15.48,5.16-30.96,7.7-46.44.14-.84.46-1.05,1.26-1.04,3.01.05,6.02.04,9.03,0,.66,0,1,.22,1.3.8,4.93,9.55,9.88,19.09,14.83,28.63.12.22.28.42.54.82.13-.44.22-.67.26-.91,1.57-9.52,3.14-19.04,4.68-28.56.11-.7.43-.77,1-.77,6.61.01,13.23.01,19.84.01,24.4,0,48.79,0,73.19,0,.47,0,.93,0,1.5,0-.34,2.04-.66,3.94-.97,5.85-.2,1.17-.43,2.34-.58,3.52-.1.75-.37,1.04-1.18,1.03-7.18-.04-14.36,0-21.54-.05-.92,0-1.35.16-1.48,1.19-.37,2.83-.86,5.65-1.36,8.47-.14.77.04.98.82.97,6.55-.03,13.11-.01,19.66-.01.38,0,.75,0,1.29,0Z"/>
      <path d="m287.79,12.37c-.56,3.34-1.11,6.54-1.63,9.73-.09.57-.48.58-.92.58-3.07,0-6.14,0-9.2,0-3.99,0-7.98.02-11.97-.02-.84,0-1.11.28-1.23,1.08-.39,2.71-.86,5.41-1.3,8.12-.07.41-.11.81-.19,1.4h20.69c-.13.88-.22,1.57-.34,2.26-.4,2.41-.83,4.81-1.2,7.22-.11.69-.37.93-1.09.93-6.23-.03-12.45,0-18.68-.03-.86,0-1.22.18-1.37,1.12-.99,6.32-2.07,12.63-3.09,18.96-.11.71-.36.93-1.08.93-8.58-.02-17.16,0-25.73-.02-3.08,0-5.42-1.65-6.5-4.54-1.54-4.13-3.08-8.26-4.56-12.41-.26-.73-.62-.95-1.35-.92-1.43.05-2.86.07-4.29,0-.84-.04-1.12.27-1.25,1.07-.85,5.29-1.76,10.57-2.6,15.87-.12.76-.41.97-1.15.96-3.57-.04-7.15-.02-10.72-.02-.32,0-.63-.04-1.04-.06.38-2.36.74-4.62,1.12-6.87,2.45-14.77,4.92-29.54,7.34-44.32.14-.87.45-1.09,1.31-1.09,7.33.05,14.65.01,21.98.08,2.61.02,5.16.53,7.54,1.64,4.57,2.12,7.12,5.72,7.42,10.73.4,6.69-1.55,12.55-6.8,16.99-1.26,1.06-2.76,1.85-4.21,2.67-.54.31-.63.57-.43,1.11,1.03,2.67,2.05,5.33,3.04,8.02.21.58.54.75,1.13.74,2.92-.02,5.84-.03,8.76,0,.67,0,.9-.2,1.01-.87,1.74-10.61,3.51-21.21,5.27-31.81.47-2.82.96-5.64,1.39-8.46.1-.64.33-.83.97-.83,11.35.02,22.7.01,34.04.01.26,0,.52.03.91.06Zm-74.38,24.33c1.04,0,1.9.03,2.76,0,2.22-.08,4.48.02,6.66-.34,4.5-.73,7.17-4.6,6.55-9.12-.34-2.48-2.22-4.21-5.18-4.44-2.51-.2-5.05-.12-7.57-.21-.73-.03-.97.25-1.07.94-.52,3.32-1.1,6.63-1.64,9.94-.17,1.02-.32,2.04-.5,3.23Z"/>
      <path d="m164.38,94.83c.4,0,.74,0,1.09,0,6.55,0,13.11,0,19.66,0,1.08,0,1.09.01.92,1.04-.47,2.79-.97,5.57-1.39,8.37-.12.78-.42,1.02-1.21,1.02-6.52-.03-13.05-.02-19.57-.02-1.58,0-1.33-.1-1.56,1.28-.46,2.76-.9,5.52-1.34,8.29-.05.31-.07.63-.12,1.05h1.06c18.14,0,36.28,0,54.42.02.83,0,1.12-.24,1.24-1.05.42-2.8.92-5.58,1.38-8.37.06-.37.11-.75.18-1.27h-1.15c-4.29,0-8.58,0-12.87,0-1.26,0-1.27,0-1.06-1.28.32-1.93.66-3.87,1.01-5.92-.38-.03-.68-.09-.99-.09-2.06,0-4.11-.02-6.17,0-.7.01-.97-.16-.84-.92.88-5.13,1.74-10.27,2.58-15.41.1-.61.34-.85.99-.83,1.7.04,3.4-.02,5.09.02.66.02.88-.24.97-.85.26-1.77.59-3.52.85-5.29.08-.55.3-.76.86-.76,8.55.01,17.1,0,25.64.01.2,0,.4.06.7.12-.23,1.36-.44,2.67-.66,3.99-.3,1.79-.63,3.58-.88,5.38-.1.72-.39.91-1.09.91-4.91-.03-9.83-.02-14.74-.02-1.55,0-1.28-.05-1.5,1.23-.2,1.2-.4,2.39-.62,3.71.46.02.8.05,1.14.06,1.49,0,2.98,0,4.47,0,1.09,0,1.08,0,.9,1.04-.37,2.14-.73,4.29-1.09,6.43-.05.29-.05.58-.09.98.52.02.98.06,1.45.06,2.59,0,5.18.02,7.77-.01.74,0,.93.24.81.95-.94,5.52-1.87,11.04-2.77,16.56-.1.6-.39.69-.91.69-2.83-.01-5.66.01-8.49-.02-.75,0-1.02.21-1.12.98-.27,2.03-.68,4.05-.98,6.08-.1.68-.5.7-1.01.7-2.71,0-5.42,0-8.13,0-1.3,0-1.3,0-1.5,1.25-.04.24-.01.52-.14.69-.17.25-.43.49-.71.59-.29.1-.65.02-.98.02-16.14.02-32.29.03-48.43.05-1.88,0-3.7-.22-5.25-1.41-2.13-1.64-3-3.87-2.62-6.47.81-5.47,1.76-10.92,2.66-16.38.64-3.93,1.28-7.86,1.93-11.79.78-4.69,1.56-9.38,2.35-14.07.12-.72.08-1.74.53-2.08.5-.38,1.47-.2,2.24-.2,11.02,0,22.04,0,33.06,0,1.15,0,1.15,0,.95,1.14-.46,2.7-.94,5.4-1.34,8.11-.13.87-.43,1.16-1.34,1.15-7.18-.04-14.36-.01-21.53-.04-.82,0-1.2.15-1.32,1.06-.42,2.98-.94,5.94-1.42,8.91-.03.17,0,.34,0,.65Z"/>
      <path d="m345.21,103.83c.25-1.48.5-2.97.75-4.45,1.36-8.22,2.72-16.45,4.05-24.68.12-.74.42-.9,1.1-.9,5.87.04,11.74.05,17.6.05.74,0,1.02.16.86.96-.28,1.36-.46,2.74-.69,4.19.36.03.62.07.88.07,3.75,0,7.51-.02,11.26.02.74,0,.97-.26,1.06-.95.22-1.59.53-3.17.78-4.76.07-.47.23-.75.78-.75,4.02.02,8.04,0,12.28,0-.34,2.21-.68,4.36-1.02,6.56-3.8,0-7.67,0-11.54,0-1.33,0-1.32,0-1.54,1.33-.34,2.11-.72,4.22-1.03,6.34-.11.73-.57.63-1.04.63-5.93,0-11.86,0-17.78,0-1.35,0-1.35,0-1.56,1.29-2.02,12.19-4.05,24.38-6.05,36.58-.11.67-.39.87-1.05.87-3.01-.03-6.02-.03-9.03,0-.71,0-1.05-.27-1.36-.88-4.93-9.48-9.88-18.95-14.83-28.43-.13-.25-.29-.5-.68-.74-.08.35-.17.7-.23,1.05-1.56,9.34-3.12,18.68-4.65,28.03-.12.74-.4.97-1.15.96-3.6-.04-7.21-.03-10.81,0-.77,0-.95-.18-.82-.97,1.9-11.33,3.77-22.67,5.65-34.01.9-5.4,1.81-10.8,2.67-16.21.14-.9.46-1.22,1.41-1.2,2.95.07,5.9.05,8.85.01.69,0,1.07.21,1.39.83,4.9,9.5,9.83,18.98,14.75,28.47.13.25.29.49.43.74.1-.02.2-.03.3-.05Z"/>
      <path d="m102.01,84.77c-.48,0-.8,0-1.12,0-2.71,0-5.42-.02-8.13.01-.71,0-.86-.25-.75-.9.54-3.02,1.07-6.04,1.54-9.07.11-.7.34-.95,1.06-.95,3.22.02,6.43-.03,9.65-.02,6.4,0,12.81,0,19.21.05,3.82.03,7.54.63,11.02,2.29,6.07,2.89,9.47,7.83,10.3,14.38,1.08,8.54-.62,16.56-5.46,23.76-4.37,6.49-10.64,10.1-18.27,11.36-2.34.39-4.74.5-7.11.53-5.9.07-11.8.01-17.69.04-.81,0-1.08-.13-.93-1.04,2.21-13.1,4.37-26.2,6.54-39.3.05-.32.08-.64.14-1.13Zm7.8,30.42c.19.06.3.12.41.12,2.74-.04,5.49.07,8.2-.18,4.6-.44,8.26-2.65,10.59-6.7,2.69-4.69,3.77-9.84,3.4-15.2-.34-5-2.72-7.53-7.71-8.15-3.08-.38-6.23-.22-9.35-.31-.6-.02-.62.41-.69.84-1.57,9.48-3.14,18.96-4.71,28.44-.06.37-.1.75-.14,1.14Z"/>
      <path d="m424.76,33.28c-.1.65-.17,1.14-.25,1.63-.44,2.58-.91,5.16-1.3,7.75-.12.79-.4,1.02-1.18,1.02-6.58-.03-13.16,0-19.75-.04-.95,0-1.26.28-1.39,1.21-.37,2.71-.86,5.41-1.3,8.11-.06.38-.11.76-.18,1.25.39.02.7.05,1.02.05,10.54,0,21.09-.01,31.63.02.89,0,1.16-.27,1.28-1.11.39-2.71.9-5.4,1.31-8.11.11-.74.36-1.04,1.18-1.03,2.77.06,5.54.02,8.31.02.29,0,.58,0,.99,0-.03.41-.02.73-.07,1.03-.47,2.85-.96,5.69-1.42,8.55-.1.6-.36.78-.95.77-2.74-.02-5.48-.01-8.22-.01-1.28,0-1.26,0-1.47,1.3-.44,2.7-.91,5.4-1.33,8.11-.1.62-.32.84-.96.84-12.63-.02-25.26.01-37.88-.03-4.33-.01-7.26-3.58-6.63-8.02.51-3.59,1.14-7.17,1.73-10.75.85-5.16,1.71-10.32,2.57-15.49.78-4.69,1.56-9.39,2.34-14.08.17-1.03.4-2.05.49-3.08.07-.76.42-.95,1.1-.9.59.04,1.19,0,1.79,0,10.93,0,21.86,0,32.79,0,.32,0,.63,0,1.07,0-.25,1.57-.48,3.01-.72,4.44-.27,1.62-.6,3.22-.81,4.84-.11.85-.41,1.12-1.29,1.12-7.18-.04-14.36,0-21.53-.05-.95,0-1.26.29-1.39,1.21-.38,2.77-.87,5.53-1.32,8.29-.05.32-.08.64-.14,1.11h21.86Z"/>
      <path d="m294.08,106.88c-.44,0-.79,0-1.13,0-2.74,0-5.48-.02-8.22.01-.72,0-.95-.19-.82-.93.46-2.58.87-5.17,1.29-7.75.08-.48.26-.73.8-.72,7.06.01,14.12.01,21.18,0,.55,0,.78.18.67.74-.72,3.62-1.09,7.35-2.23,10.83-3.29,10.01-10.46,15.71-20.75,17.49-5.14.89-10.24.55-15.07-1.58-5.87-2.59-9.43-7.2-10.48-13.44-1.81-10.83.72-20.72,8.11-28.9,7.42-8.21,16.91-11.06,27.74-8.67,5.61,1.24,9.9,4.44,12.18,9.92.94,2.26,1.26,4.62,1.12,7.1-.32.02-.55.06-.78.06-3.72,0-7.45-.01-11.17.01-.64,0-.92-.15-1.04-.85-.62-3.53-2.89-5.53-6.48-5.79-6.01-.43-10.58,2.09-13.63,7.13-3.16,5.2-4.14,10.95-3.06,16.94.79,4.42,3.93,7.01,8.41,7.22,3.58.18,6.95-.48,9.83-2.78,1.91-1.52,3.06-3.51,3.56-6.05Z"/>
      <path d="m330.58,64.57c-.41.02-.7.05-.99.05-3.9,0-7.8-.01-11.71.02-.73,0-1.03-.18-1.14-.96-.41-3.1-.91-6.19-1.33-9.28-.08-.57-.28-.75-.84-.74-5.48.01-10.96.02-16.44,0-.56,0-.84.21-1.08.71-1.5,3.17-3.05,6.33-4.56,9.5-.22.46-.44.78-1.04.78-4.11-.02-8.22-.01-12.33-.01-.17,0-.34-.06-.62-.11.15-.35.27-.64.41-.92,8.16-16.22,16.32-32.45,24.49-48.67.15-.29.38-.56.46-.87.4-1.56,1.42-1.83,2.92-1.79,4.67.11,9.35.05,14.03.02.63,0,.88.17.98.81,1.95,11.48,3.93,22.95,5.89,34.43.92,5.34,1.83,10.68,2.74,16.03.05.29.09.58.16,1.02Zm-19.39-38.89c-.11-.02-.22-.04-.33-.05-2.92,6.08-5.84,12.15-8.8,18.32h11.82c-.9-6.14-1.8-12.2-2.69-18.26Z"/>
      <path d="m381.92,46.2c-.54,2.21-1.34,4.1-2.41,5.85-5.76,9.38-14.19,13.75-25.15,13.25-4.48-.2-8.62-1.48-12.2-4.25-3.86-2.99-6.11-7.02-6.85-11.76-1.56-10.02.49-19.29,6.74-27.37,5-6.45,11.8-9.75,19.93-10.26,4.71-.29,9.29.29,13.53,2.5,5.12,2.65,7.95,6.94,8.68,12.62.16,1.24.15,2.49.21,3.74.03.57-.17.85-.82.85-3.72-.03-7.45-.03-11.17,0-.75,0-.79-.37-.8-.94-.02-2.51-.78-4.7-2.9-6.22-1.43-1.02-3.08-1.41-4.81-1.43-5.34-.05-9.44,2.32-12.25,6.75-3.32,5.23-4.57,11.03-3.72,17.18.66,4.75,3.93,7.47,8.74,7.47,4.72,0,8.69-1.57,11.35-5.7.19-.3.44-.6.51-.94.28-1.27,1.12-1.4,2.25-1.38,3.33.07,6.67.02,10.01.02.32,0,.64,0,1.13,0Z"/>
      <path d="m39.35,12.3h22.77c-.48,2.9-.93,5.65-1.39,8.41-1.55,9.34-3.1,18.68-4.65,28.02-.82,4.96-1.67,9.92-2.47,14.89-.12.75-.36,1.04-1.17,1.03-3.51-.05-7.03-.02-10.54-.02-.35,0-.7,0-1.22,0,2.32-14,4.63-27.87,6.95-41.89h-10.19c.58-3.51,1.13-6.86,1.7-10.33-.47,0-.78,0-1.1,0-3.37,0-6.73-.03-10.1.02-.88.01-1.05-.24-.9-1.08.63-3.52,1.21-7.04,1.79-10.57C28.9.32,29,0,29.57,0c3.78.02,7.56.01,11.35.02.11,0,.22.06.45.12-.66,4-1.32,7.98-2.02,12.16Z"/>
      <path d="m257.64,73.93c-.22,1.38-.43,2.67-.64,3.95-2.18,13.19-4.36,26.37-6.55,39.56-.42,2.56-.9,5.1-1.26,7.67-.13.92-.51,1.14-1.38,1.13-3.42-.05-6.85-.02-10.27-.02q-1.32,0-1.09-1.34c1.12-6.75,2.24-13.51,3.36-20.26,1.65-9.93,3.31-19.85,4.93-29.78.12-.73.36-1,1.12-.99,3.6.04,7.21.02,10.81.02.29,0,.57.04.97.06Z"/>
      <path d="m11.59,19.14c.37-2.33.71-4.46,1.07-6.72H.01c0-.34-.03-.57,0-.78.26-1.65.56-3.28.79-4.93.09-.61.3-.87.95-.87,3.78.02,7.56.02,11.34,0,.67,0,.83.25.72.86-.28,1.52-.53,3.05-.78,4.57-.05.29-.07.58-.12,1.01h6.66c-.38,2.26-.72,4.37-1.1,6.47-.03.15-.27.37-.42.37-2.1.02-4.21.02-6.47.02Z"/>
    </g>
  </g>
</svg>